<svg xmlns="http://www.w3.org/2000/svg" version="1.1" xmlns:xlink="http://www.w3.org/1999/xlink" xmlns:svgjs="http://svgjs.dev/svgjs" width="1440" height="560" preserveAspectRatio="none" viewBox="0 0 1440 560"><g mask="url(&quot;#SvgjsMask1015&quot;)" fill="none"><rect width="1440" height="560" x="0" y="0" fill="rgba(0, 123, 125, 1)"></rect><path d="M140 133.23C135.19 134.46 134.55 135.41 132.63 140C103.85 208.8 76.11 220.14 78.6 280C79.79 308.56 108.93 316.84 140 316.84C173.29 316.84 177.56 303.58 207.31 280C247.56 248.1 248.67 246.61 280 205.88C302.51 176.61 315 170.66 315 140C315 118.84 303.12 103.14 280 102.25C215.62 99.76 208.88 115.59 140 133.23" stroke="rgba(0, 168, 169, 0.74)" stroke-width="2"></path><path d="M396.67 0C411.61 2.29 408.23 21.41 420 21.41C432.03 21.41 428.97 2.34 444.27 0C498.97 -8.37 502.13 0 560 0C619.45 0 630.76 -17.08 678.9 0C700.76 7.76 677.64 44.35 700 49.68C758.19 63.55 769.9 42.07 840 38.39C909.9 34.73 919.68 50.16 980 35C996.04 30.97 976.88 3.96 992.73 0C1046.88 -13.54 1056.36 0 1120 0C1152.56 0 1157.03 -12.42 1185.12 0C1227.03 18.54 1227.2 61.92 1260 61.92C1285.02 61.92 1270.83 13.24 1300.76 0C1340.83 -17.72 1350.38 0 1400 0C1470 0 1505 -35 1540 0C1575 35 1540 70 1540 140C1540 210 1540 210 1540 280C1540 350 1540 350 1540 420C1540 490 1575 525 1540 560C1505 595 1470 560 1400 560C1330 560 1330 560 1260 560C1190 560 1190 560 1120 560C1050 560 1050 560 980 560C910 560 910 560 840 560C786.66 560 782.05 571.33 733.33 560C712.05 555.05 717.94 527.44 700 527.44C678.33 527.44 680.3 553.91 654.1 560C610.3 570.19 607.05 560 560 560C516.51 560 496.91 586.15 473.03 560C432.99 516.15 456.56 486.1 432.17 420C430.04 414.23 426.23 416.27 420 416.27C407.42 416.27 398.91 409.08 394.55 420C370.22 480.95 398.98 515.57 362.62 560C341.7 585.57 321.31 560 280 560C210 560 210 560 140 560C70 560 35 595 0 560C-35 525 0 490 0 420C0 350 0 350 0 280C0 210 0 210 0 140C0 70 -35 35 0 0C35 -35 70 0 140 0C210 0 210 0 280 0C338.34 0 341.61 -8.42 396.67 0" stroke="rgba(0, 168, 169, 0.74)" stroke-width="2"></path><path d="M560 114.21C545.81 114.21 537.75 123.74 537.21 140C534.99 206.64 544.39 210.32 554.47 280C555.78 289.07 551.59 297.15 560 297.5C624.36 300.19 643.75 258.82 700 286.09C770.09 320.07 755.47 353.83 812.68 420C825.47 434.79 822.01 441.98 840 448C905.67 469.98 919.89 485.54 980 476C1008.15 471.54 1016.52 445.84 1016.52 420C1016.52 400.58 998.64 402.32 980 385.48C921.15 332.32 919.38 334.09 861.54 280C849.38 268.63 855.52 256.3 840 254.55C774.75 247.17 754.27 289.7 700 261.74C643.1 232.43 666.61 191.59 617.65 140C596.61 117.83 586.03 114.21 560 114.21" stroke="rgba(0, 168, 169, 0.74)" stroke-width="2"></path><path d="M1260 244.1C1228.93 244.1 1193.33 265.3 1193.33 280C1193.33 293.55 1227.63 300.59 1260 300.59C1280.41 300.59 1298.89 292.82 1298.89 280C1298.89 264.58 1281.71 244.1 1260 244.1" stroke="rgba(0, 168, 169, 0.74)" stroke-width="2"></path><path d="M0 51.74C10.29 20.86 16.75 11.06 46.67 0C86.75 -14.81 93.34 0 140 0C210 0 210 0 280 0C315.89 0 351.79 -13.5 351.79 0C351.79 17.96 322.81 47.4 280 62.92C216.91 85.79 202.73 53.61 140 76.77C98.34 92.15 94.79 101.01 71.23 140C33.38 202.63 42.2 209.33 17.19 280C6.59 309.96 4.38 341.25 0 341.25C-4.22 341.25 0 310.63 0 280C0 210 0 210 0 140C0 95.87 -13.04 90.86 0 51.74" stroke="rgba(0, 168, 169, 0.74)" stroke-width="2"></path><path d="M351.46 140C379.76 97.16 383.58 99.14 420 62.59C453.32 29.14 450.47 18.09 490.93 0C520.47 -13.21 525.47 0 560 0C595.48 0 630.96 -14.28 630.96 0C630.96 19.8 594.05 32.71 560 68.16C526.82 102.71 506.97 97.04 496.51 140C481.18 202.96 528.6 219.45 508.42 280C490.34 334.25 470.58 366.15 420 369.6C356.37 373.93 345.84 336.14 280 295.56C273.15 291.34 274.62 287.18 274.62 280C274.62 276.65 278.15 277.87 280 274.51C316.57 207.87 309.76 203.12 351.46 140" stroke="rgba(0, 168, 169, 0.74)" stroke-width="2"></path><path d="M728 140C728 116.21 786.02 94.84 840 94.84C877.91 94.84 911.79 116.43 911.79 140C911.79 164.46 878.32 190.91 840 190.91C786.43 190.91 728 164.24 728 140" stroke="rgba(0, 168, 169, 0.74)" stroke-width="2"></path><path d="M1090.83 140C1117.47 116.35 1091.85 71.79 1120 70C1176.43 66.41 1204.23 146.58 1260 129.23C1316.76 111.58 1293.4 47.68 1345.06 0C1363.4 -16.93 1372.53 0 1400 0C1470 0 1505 -35 1540 0C1575 35 1540 70 1540 140C1540 170 1558.29 180.19 1540 200C1493.67 250.19 1458.52 228.84 1410.77 280C1388.52 303.84 1403.68 350 1400 350C1396.35 350 1415.33 306.86 1396.11 280C1345.33 209.04 1338.2 183.58 1260 154.36C1200.14 132 1171.48 141.79 1120 176.84C1079.2 204.61 1110.59 239.66 1075.45 280C1040.59 320.01 1025.06 337.53 980 337.53C945.02 337.53 915.38 311.96 915.38 280C915.38 240.34 939.19 226.85 980 194.29C1026.92 156.85 1047.47 178.49 1090.83 140" stroke="rgba(0, 168, 169, 0.74)" stroke-width="2"></path><path d="M23.33 420C79.62 384.13 82.56 353.68 140 353.68C192.53 353.68 203.03 377.08 243.28 420C273.03 451.72 261.64 461.48 280 502.96C292.62 531.48 305.25 539.7 305.25 560C305.25 568.22 292.63 560 280 560C241.5 560 240.38 566.23 203 560C170.38 554.56 168.89 536.67 140 536.67C125.94 536.67 132.37 557.45 117.09 560C62.37 569.12 29.27 589.27 0 560C-29.27 530.73 -9.12 497.63 0 442.91C2.55 427.63 9.62 428.74 23.33 420" stroke="rgba(0, 168, 169, 0.74)" stroke-width="2"></path><path d="M572.44 420C630.72 373.72 642.37 336.81 700 336.81C741.15 336.81 770 380.33 770 420C770 455.29 737.52 456.43 700 486.74C650.88 526.43 650.98 531.6 596.72 560C580.98 568.23 578.36 560 560 560C543.03 560 526.06 572.59 526.06 560C526.06 516.59 541.62 503.48 560 448C564.81 433.48 560.72 429.31 572.44 420" stroke="rgba(0, 168, 169, 0.74)" stroke-width="2"></path><path d="M1067.25 420C1095.04 375.37 1078.97 343.46 1120 329C1175.35 309.49 1193.38 330.09 1260 352.06C1331.32 375.59 1328.13 385.71 1395.88 420C1398.13 421.14 1398.26 421.09 1400 422.92C1464.83 491.09 1529.02 519.33 1529.02 560C1529.02 587.87 1464.51 560 1400 560C1330 560 1330 560 1260 560C1190 560 1190 560 1120 560C1050 560 1050 560 980 560C910 560 910 560 840 560C807.5 560 775 573.93 775 560C775 539.8 800.95 492.93 840 491.75C903.45 489.82 924.38 571.34 980 553.78C1038.01 535.46 1025.04 487.76 1067.25 420" stroke="rgba(0, 168, 169, 0.74)" stroke-width="2"></path><path d="M0 127.83C2.76 127.83 9.82 133.15 9.82 140C9.82 151.96 2.54 165.45 0 165.45C-2.37 165.45 0 152.73 0 140C0 133.91 -2.15 127.83 0 127.83" stroke="rgba(0, 168, 169, 0.74)" stroke-width="2"></path><path d="M140 20.32C124.68 18.13 115.29 5.73 115.29 0C115.29 -4.43 127.64 0 140 0C210 0 210 0 280 0C293.46 0 306.92 -5.06 306.92 0C306.92 6.74 296.99 21.53 280 23.6C213.53 31.69 207.04 29.93 140 20.32" stroke="rgba(0, 168, 169, 0.74)" stroke-width="2"></path><path d="M387.92 140C396.68 117.95 403.46 103.76 420 103.76C437.41 103.76 450.16 116.51 455.81 140C471.35 204.63 474.89 216.05 462.37 280C456.98 307.52 443.79 322.93 420 322.93C387.61 322.93 355.8 313.06 350 280C339.76 221.6 361.68 206.07 387.92 140" stroke="rgba(0, 168, 169, 0.74)" stroke-width="2"></path><path d="M560 22.11C548.73 22.11 537.6 6.46 537.6 0C537.6 -4.6 548.8 0 560 0C571.51 0 583.01 -4.63 583.01 0C583.01 6.42 571.43 22.11 560 22.11" stroke="rgba(0, 168, 169, 0.74)" stroke-width="2"></path><path d="M1344 140C1340.5 76.87 1363.26 65.28 1389.37 0C1391.26 -4.72 1394.68 0 1400 0C1430 0 1450.21 -20.99 1460 0C1482.87 49.01 1484.15 79.91 1465.33 140C1454.15 175.7 1431.68 191.58 1400 191.58C1371.02 191.58 1345.81 172.66 1344 140" stroke="rgba(0, 168, 169, 0.74)" stroke-width="2"></path><path d="M969.23 280C969.23 273.39 973.92 265.71 980 265.71C987.26 265.71 995.91 273.61 995.91 280C995.91 285.55 987.51 289.59 980 289.59C974.17 289.59 969.23 285.33 969.23 280" stroke="rgba(0, 168, 169, 0.74)" stroke-width="2"></path><path d="M88.15 420C88.15 401.76 114.47 390.53 140 390.53C163.35 390.53 185.9 402.08 185.9 420C185.9 442.74 163.74 471.85 140 471.85C114.86 471.85 88.15 442.42 88.15 420" stroke="rgba(0, 168, 169, 0.74)" stroke-width="2"></path><path d="M650.22 420C650.22 404.96 677.51 387.54 700 387.54C716.06 387.54 727.32 404.52 727.32 420C727.32 433.77 715.49 446.05 700 446.05C676.94 446.05 650.22 434.22 650.22 420" stroke="rgba(0, 168, 169, 0.74)" stroke-width="2"></path><path d="M1117.97 420C1117.97 418.02 1118.01 416.73 1120 416.5C1189.03 408.5 1191.48 402.14 1260 403.53C1277.95 403.89 1292.94 407.62 1292.94 420C1292.94 439.19 1284.81 463.32 1260 466.67C1198.34 474.99 1180.96 463.36 1120 443.33C1109.94 440.03 1117.97 431.44 1117.97 420" stroke="rgba(0, 168, 169, 0.74)" stroke-width="2"></path><path d="M0 506.55C15.66 506.55 53.45 544.34 53.45 560C53.45 571.07 13.36 573.36 0 560C-13.36 546.64 -11.07 506.55 0 506.55" stroke="rgba(0, 168, 169, 0.74)" stroke-width="2"></path><path d="M816.67 560C816.67 552.75 826 535.5 840 535.5C864.15 535.5 892.97 553.58 892.97 560C892.97 565.83 866.49 560 840 560C828.34 560 816.67 565 816.67 560" stroke="rgba(0, 168, 169, 0.74)" stroke-width="2"></path><path d="M1318.95 560C1318.95 542.02 1361.82 495.83 1400 495.83C1432.54 495.83 1460.39 540.96 1460.39 560C1460.39 573.05 1430.2 560 1400 560C1359.47 560 1318.95 574.1 1318.95 560" stroke="rgba(0, 168, 169, 0.74)" stroke-width="2"></path></g><defs><mask id="SvgjsMask1015"><rect width="1440" height="560" fill="#ffffff"></rect></mask></defs></svg>