<svg id="visual" viewBox="0 0 900 200" width="900" height="200" xmlns="http://www.w3.org/2000/svg" xmlns:xlink="http://www.w3.org/1999/xlink" version="1.1"><rect x="0" y="0" width="900" height="200" fill="#F5F5F5"></rect><path d="M0 44L12.5 48C25 52 50 60 75 60.5C100 61 125 54 150 55C175 56 200 65 225 65.7C250 66.3 275 58.7 300 56.2C325 53.7 350 56.3 375 61.5C400 66.7 425 74.3 450 73.3C475 72.3 500 62.7 525 56.7C550 50.7 575 48.3 600 54.2C625 60 650 74 675 73.5C700 73 725 58 750 55.3C775 52.7 800 62.3 825 61.7C850 61 875 50 887.5 44.5L900 39L900 201L887.5 201C875 201 850 201 825 201C800 201 775 201 750 201C725 201 700 201 675 201C650 201 625 201 600 201C575 201 550 201 525 201C500 201 475 201 450 201C425 201 400 201 375 201C350 201 325 201 300 201C275 201 250 201 225 201C200 201 175 201 150 201C125 201 100 201 75 201C50 201 25 201 12.5 201L0 201Z" fill="#00a8a9"></path><path d="M0 68L12.5 68.2C25 68.3 50 68.7 75 71.3C100 74 125 79 150 78.5C175 78 200 72 225 68.8C250 65.7 275 65.3 300 72C325 78.7 350 92.3 375 99C400 105.7 425 105.3 450 99.3C475 93.3 500 81.7 525 78.8C550 76 575 82 600 85C625 88 650 88 675 90C700 92 725 96 750 94C775 92 800 84 825 78.2C850 72.3 875 68.7 887.5 66.8L900 65L900 201L887.5 201C875 201 850 201 825 201C800 201 775 201 750 201C725 201 700 201 675 201C650 201 625 201 600 201C575 201 550 201 525 201C500 201 475 201 450 201C425 201 400 201 375 201C350 201 325 201 300 201C275 201 250 201 225 201C200 201 175 201 150 201C125 201 100 201 75 201C50 201 25 201 12.5 201L0 201Z" fill="#009fa0"></path><path d="M0 102L12.5 104.8C25 107.7 50 113.3 75 116.5C100 119.7 125 120.3 150 115.2C175 110 200 99 225 100C250 101 275 114 300 119.5C325 125 350 123 375 118.7C400 114.3 425 107.7 450 107C475 106.3 500 111.7 525 113.3C550 115 575 113 600 108.8C625 104.7 650 98.3 675 99.5C700 100.7 725 109.3 750 109C775 108.7 800 99.3 825 95C850 90.7 875 91.3 887.5 91.7L900 92L900 201L887.5 201C875 201 850 201 825 201C800 201 775 201 750 201C725 201 700 201 675 201C650 201 625 201 600 201C575 201 550 201 525 201C500 201 475 201 450 201C425 201 400 201 375 201C350 201 325 201 300 201C275 201 250 201 225 201C200 201 175 201 150 201C125 201 100 201 75 201C50 201 25 201 12.5 201L0 201Z" fill="#009697"></path><path d="M0 111L12.5 117.3C25 123.7 50 136.3 75 137.2C100 138 125 127 150 126.3C175 125.7 200 135.3 225 136.3C250 137.3 275 129.7 300 127.2C325 124.7 350 127.3 375 125.7C400 124 425 118 450 119.2C475 120.3 500 128.7 525 129.7C550 130.7 575 124.3 600 123C625 121.7 650 125.3 675 127.7C700 130 725 131 750 131.2C775 131.3 800 130.7 825 133.2C850 135.7 875 141.3 887.5 144.2L900 147L900 201L887.5 201C875 201 850 201 825 201C800 201 775 201 750 201C725 201 700 201 675 201C650 201 625 201 600 201C575 201 550 201 525 201C500 201 475 201 450 201C425 201 400 201 375 201C350 201 325 201 300 201C275 201 250 201 225 201C200 201 175 201 150 201C125 201 100 201 75 201C50 201 25 201 12.5 201L0 201Z" fill="#008d8f"></path><path d="M0 142L12.5 142.5C25 143 50 144 75 148.2C100 152.3 125 159.7 150 163.2C175 166.7 200 166.3 225 163.2C250 160 275 154 300 153C325 152 350 156 375 158C400 160 425 160 450 159.7C475 159.3 500 158.7 525 154.5C550 150.3 575 142.7 600 140.2C625 137.7 650 140.3 675 140.7C700 141 725 139 750 142C775 145 800 153 825 154.2C850 155.3 875 149.7 887.5 146.8L900 144L900 201L887.5 201C875 201 850 201 825 201C800 201 775 201 750 201C725 201 700 201 675 201C650 201 625 201 600 201C575 201 550 201 525 201C500 201 475 201 450 201C425 201 400 201 375 201C350 201 325 201 300 201C275 201 250 201 225 201C200 201 175 201 150 201C125 201 100 201 75 201C50 201 25 201 12.5 201L0 201Z" fill="#008486"></path><path d="M0 185L12.5 180.5C25 176 50 167 75 163.8C100 160.7 125 163.3 150 166.2C175 169 200 172 225 171.2C250 170.3 275 165.7 300 164.8C325 164 350 167 375 167.3C400 167.7 425 165.3 450 165.5C475 165.7 500 168.3 525 170.8C550 173.3 575 175.7 600 176.5C625 177.3 650 176.7 675 175.3C700 174 725 172 750 172.7C775 173.3 800 176.7 825 177.2C850 177.7 875 175.3 887.5 174.2L900 173L900 201L887.5 201C875 201 850 201 825 201C800 201 775 201 750 201C725 201 700 201 675 201C650 201 625 201 600 201C575 201 550 201 525 201C500 201 475 201 450 201C425 201 400 201 375 201C350 201 325 201 300 201C275 201 250 201 225 201C200 201 175 201 150 201C125 201 100 201 75 201C50 201 25 201 12.5 201L0 201Z" fill="#007b7d"></path></svg>