<svg id="visual" viewBox="0 0 960 200" width="960" height="200" xmlns="http://www.w3.org/2000/svg" xmlns:xlink="http://www.w3.org/1999/xlink" version="1.1"><rect x="0" y="0" width="960" height="200" fill="#F5F5F5"></rect><path d="M0 112L20 109.7C40 107.3 80 102.7 120 102.3C160 102 200 106 240 105.5C280 105 320 100 360 97.8C400 95.7 440 96.3 480 101.3C520 106.3 560 115.7 600 115.7C640 115.7 680 106.3 720 102.3C760 98.3 800 99.7 840 104.2C880 108.7 920 116.3 940 120.2L960 124L960 0L940 0C920 0 880 0 840 0C800 0 760 0 720 0C680 0 640 0 600 0C560 0 520 0 480 0C440 0 400 0 360 0C320 0 280 0 240 0C200 0 160 0 120 0C80 0 40 0 20 0L0 0Z" fill="#00a8a9"></path><path d="M0 64L20 69.2C40 74.3 80 84.7 120 86.8C160 89 200 83 240 77.8C280 72.7 320 68.3 360 71.5C400 74.7 440 85.3 480 86.3C520 87.3 560 78.7 600 75C640 71.3 680 72.7 720 73C760 73.3 800 72.7 840 77.3C880 82 920 92 940 97L960 102L960 0L940 0C920 0 880 0 840 0C800 0 760 0 720 0C680 0 640 0 600 0C560 0 520 0 480 0C440 0 400 0 360 0C320 0 280 0 240 0C200 0 160 0 120 0C80 0 40 0 20 0L0 0Z" fill="#009c9e"></path><path d="M0 85L20 78.8C40 72.7 80 60.3 120 56C160 51.7 200 55.3 240 56C280 56.7 320 54.3 360 56.3C400 58.3 440 64.7 480 66.7C520 68.7 560 66.3 600 67.2C640 68 680 72 720 74.3C760 76.7 800 77.3 840 73.5C880 69.7 920 61.3 940 57.2L960 53L960 0L940 0C920 0 880 0 840 0C800 0 760 0 720 0C680 0 640 0 600 0C560 0 520 0 480 0C440 0 400 0 360 0C320 0 280 0 240 0C200 0 160 0 120 0C80 0 40 0 20 0L0 0Z" fill="#009193"></path><path d="M0 35L20 38.8C40 42.7 80 50.3 120 54.5C160 58.7 200 59.3 240 59.3C280 59.3 320 58.7 360 58.2C400 57.7 440 57.3 480 58C520 58.7 560 60.3 600 59.8C640 59.3 680 56.7 720 54C760 51.3 800 48.7 840 48C880 47.3 920 48.7 940 49.3L960 50L960 0L940 0C920 0 880 0 840 0C800 0 760 0 720 0C680 0 640 0 600 0C560 0 520 0 480 0C440 0 400 0 360 0C320 0 280 0 240 0C200 0 160 0 120 0C80 0 40 0 20 0L0 0Z" fill="#008688"></path><path d="M0 34L20 34.5C40 35 80 36 120 33.7C160 31.3 200 25.7 240 24.8C280 24 320 28 360 29C400 30 440 28 480 27.3C520 26.7 560 27.3 600 28.8C640 30.3 680 32.7 720 30.7C760 28.7 800 22.3 840 22C880 21.7 920 27.3 940 30.2L960 33L960 0L940 0C920 0 880 0 840 0C800 0 760 0 720 0C680 0 640 0 600 0C560 0 520 0 480 0C440 0 400 0 360 0C320 0 280 0 240 0C200 0 160 0 120 0C80 0 40 0 20 0L0 0Z" fill="#007b7d"></path></svg>